<svg width="37" height="37" viewBox="0 0 37 37" fill="none" xmlns="http://www.w3.org/2000/svg">
<path d="M31.2188 6.07031H19.3672V3.46875C19.3672 3.23876 19.2758 3.01818 19.1132 2.85556C18.9506 2.69293 18.73 2.60156 18.5 2.60156C18.27 2.60156 18.0494 2.69293 17.8868 2.85556C17.7242 3.01818 17.6328 3.23876 17.6328 3.46875V6.07031H5.78125C5.2446 6.07031 4.72993 6.2835 4.35046 6.66296C3.971 7.04243 3.75781 7.5571 3.75781 8.09375V25.4375C3.75781 25.9741 3.971 26.4888 4.35046 26.8683C4.72993 27.2478 5.2446 27.4609 5.78125 27.4609H12.0684L8.5707 31.8402C8.49896 31.9288 8.4457 32.0309 8.41407 32.1404C8.38244 32.2499 8.37308 32.3646 8.38656 32.4778C8.40003 32.591 8.43606 32.7003 8.49252 32.7993C8.54897 32.8983 8.6247 32.985 8.71523 33.0543C8.86627 33.1771 9.05534 33.2435 9.25 33.2422C9.38098 33.2417 9.51015 33.2115 9.6278 33.1539C9.74545 33.0964 9.84853 33.0129 9.9293 32.9098L14.2941 27.4609H22.7059L27.0707 32.9098C27.1515 33.0129 27.2546 33.0964 27.3722 33.1539C27.4899 33.2115 27.619 33.2417 27.75 33.2422C27.9447 33.2435 28.1337 33.1771 28.2848 33.0543C28.3753 32.985 28.451 32.8983 28.5075 32.7993C28.5639 32.7003 28.6 32.591 28.6134 32.4778C28.6269 32.3646 28.6176 32.2499 28.5859 32.1404C28.5543 32.0309 28.501 31.9288 28.4293 31.8402L24.9316 27.4609H31.2188C31.7554 27.4609 32.2701 27.2478 32.6495 26.8683C33.029 26.4888 33.2422 25.9741 33.2422 25.4375V8.09375C33.2422 7.5571 33.029 7.04243 32.6495 6.66296C32.2701 6.2835 31.7554 6.07031 31.2188 6.07031ZM31.5078 25.4375C31.5078 25.5142 31.4774 25.5877 31.4231 25.6419C31.3689 25.6961 31.2954 25.7266 31.2188 25.7266H5.78125C5.70459 25.7266 5.63106 25.6961 5.57685 25.6419C5.52264 25.5877 5.49219 25.5142 5.49219 25.4375V8.09375C5.49219 8.01709 5.52264 7.94356 5.57685 7.88935C5.63106 7.83514 5.70459 7.80469 5.78125 7.80469H31.2188C31.2954 7.80469 31.3689 7.83514 31.4231 7.88935C31.4774 7.94356 31.5078 8.01709 31.5078 8.09375V25.4375Z" fill="#AB0908"/>
</svg>
