<svg width="32" height="21" viewBox="0 0 32 21" fill="none" xmlns="http://www.w3.org/2000/svg">
<path d="M24.3318 16.3193V19.8104C24.3318 20.2724 23.9612 20.65 23.5001 20.65H1.68177C1.22063 20.65 0.850008 20.2724 0.850008 19.8104V1.19115V1.19081H1.00001C0.998304 0.833887 1.26632 0.534685 1.61779 0.501252L24.3318 16.3193ZM24.3318 16.3193L29.8227 20.4793L29.8629 20.5097H29.8664C30.1125 20.6706 30.4262 20.6895 30.6911 20.5554C30.971 20.4138 31.1477 20.126 31.15 19.8113V19.8102L31.15 1.19051L31.15 1.18941C31.1477 0.874594 30.9709 0.586789 30.6907 0.445227C30.4106 0.303604 30.0755 0.332776 29.8238 0.520729L29.8229 0.521362L24.3318 4.6814V1.19046C24.3318 1.19038 24.3318 1.1903 24.3318 1.19022C24.3317 0.728111 23.9611 0.350902 23.5001 0.350902H1.68574C1.66023 0.349625 1.63491 0.349704 1.60939 0.351138L1.47278 0.358814L1.4722 0.375154L24.3318 16.3193ZM22.6682 14.6382V18.9707H2.51353V2.03036H22.6682L22.6682 6.36293L22.6682 6.36417C22.6708 6.67885 22.8474 6.96661 23.1274 7.10819C23.4075 7.24985 23.7427 7.22065 23.9946 7.03276L23.9955 7.03207L29.4864 2.87181V18.1293L23.9955 13.969L23.9946 13.9683C23.7427 13.7805 23.4075 13.7512 23.1274 13.8929C22.8474 14.0345 22.6708 14.3223 22.6682 14.6369V14.6382Z" fill="#AB0908" stroke="#AB0908" stroke-width="0.3"/>
</svg>
