<svg width="29" height="29" viewBox="0 0 29 29" fill="none" xmlns="http://www.w3.org/2000/svg">
<path d="M24.65 16.433H13.05V4.34994C13.05 4.08261 12.8334 3.86662 12.5667 3.86662H11.3269C11.1098 3.86662 10.9199 4.01119 10.8614 4.2194L10.451 5.68727C9.97201 5.78199 9.50182 5.90822 9.04655 6.06379L7.96636 5.00285C7.82482 4.86368 7.61163 4.82592 7.42887 4.90769C6.64432 5.26091 5.8943 5.69786 5.19973 6.20405C5.03985 6.32057 4.96735 6.52253 5.01611 6.71435L5.39113 8.18763C5.02582 8.50913 4.68104 8.85567 4.3621 9.22206L2.9 8.84532C2.70817 8.79613 2.50405 8.86949 2.38775 9.03089C1.88349 9.72936 1.44997 10.4828 1.09805 11.2708C1.01735 11.4512 1.05511 11.6629 1.19277 11.8044L2.24987 12.8934C2.09429 13.3526 1.96806 13.8262 1.87442 14.3071L0.355811 14.7208C0.145862 14.7782 0 14.9691 0 15.187V17.679C0 17.8969 0.145862 18.0878 0.356242 18.1455L1.87485 18.5591C1.96871 19.0396 2.09472 19.5132 2.2503 19.9728L1.19276 21.0607C1.0551 21.2029 1.01734 21.4139 1.09804 21.5943C1.44997 22.3834 1.88347 23.1369 2.38708 23.8353C2.5036 23.9971 2.70664 24.0687 2.89998 24.0208L4.36207 23.6443C4.68099 24.0107 5.02582 24.3572 5.39111 24.6787L5.01566 26.1525C4.96689 26.3439 5.03982 26.5458 5.19928 26.6628C5.89429 27.1694 6.64497 27.6052 7.42886 27.9591C7.61011 28.0398 7.82372 28.0036 7.96592 27.8633L9.0461 26.8028C9.50139 26.9584 9.97223 27.0846 10.4506 27.1793L10.861 28.6472C10.9195 28.8561 11.1093 29 11.3264 29H13.8059C14.023 29 14.2128 28.8554 14.2713 28.6472L14.6817 27.1793C15.1597 27.0851 15.6301 26.959 16.0862 26.8028L17.1664 27.8638C17.3086 28.0034 17.5222 28.0416 17.7039 27.9589C18.4884 27.6057 19.2385 27.1688 19.933 26.6626C20.0929 26.546 20.1654 26.3441 20.1166 26.1523L19.7416 24.679C20.1069 24.3575 20.4517 24.0109 20.7707 23.6446L22.2334 24.0209C22.4258 24.0707 22.6293 23.9967 22.7456 23.8353C23.2497 23.1364 23.6834 22.3825 24.0346 21.5946C24.1153 21.4142 24.0776 21.2025 23.9399 21.061L22.8828 19.9726C23.0384 19.513 23.1646 19.0398 23.2583 18.5589L24.7769 18.1453C24.9875 18.0881 25.1333 17.8971 25.1333 17.6792V16.9164C25.1333 16.6491 24.9167 16.433 24.65 16.433ZM12.5667 17.3997H19.7432C19.2674 20.9623 16.2095 23.6829 12.5667 23.6829C8.56904 23.6829 5.31667 20.4306 5.31667 16.433C5.31667 12.5979 8.31053 9.44888 12.0833 9.1992V16.9164C12.0833 17.1837 12.3 17.3997 12.5667 17.3997ZM22.7106 17.7072C22.5289 17.757 22.3921 17.9078 22.3611 18.0943C22.2566 18.7221 22.0929 19.3384 21.8743 19.9261C21.8095 20.1011 21.8505 20.2979 21.9807 20.4313L23.0155 21.4969C22.7652 22.0189 22.4752 22.5229 22.1505 23.0015L20.7192 22.6327C20.5384 22.5883 20.3451 22.6491 20.2258 22.7941C19.8261 23.2803 19.3771 23.7312 18.8912 24.1353C18.7482 24.2542 18.6858 24.4456 18.7318 24.6264L19.099 26.0686C18.6239 26.3944 18.1237 26.6853 17.605 26.9377L16.5474 25.8994C16.4137 25.768 16.2138 25.7264 16.0391 25.7915C15.4552 26.011 14.8424 26.1758 14.2179 26.2807C14.0332 26.3116 13.883 26.4471 13.8328 26.6272L13.4396 28.0327H11.6938L11.3009 26.6272C11.2506 26.4468 11.1002 26.3122 10.9162 26.2807C10.2893 26.1747 9.67636 26.0106 9.09442 25.7915C8.919 25.7257 8.72027 25.7674 8.58606 25.8994L7.52852 26.9371C7.00981 26.6853 6.50966 26.3948 6.0345 26.0686L6.4024 24.6259C6.44836 24.4451 6.38643 24.2537 6.24294 24.1348C5.75723 23.7307 5.3082 23.2793 4.90839 22.7936C4.78841 22.6482 4.59616 22.5863 4.41448 22.6322L2.98326 23.001C2.65852 22.5228 2.36851 22.0188 2.11757 21.4967L3.15284 20.4314C3.28295 20.2976 3.32395 20.1009 3.25922 19.9259C3.04086 19.3381 2.87686 18.7219 2.77243 18.094C2.74158 17.9074 2.60477 17.7565 2.42288 17.7069L0.966856 17.3097V15.5557L2.4231 15.1589C2.60478 15.109 2.74158 14.9582 2.77265 14.7718C2.87709 14.1439 3.04086 13.5277 3.25944 12.9399C3.32417 12.7649 3.28317 12.5681 3.15306 12.4348L2.11823 11.3691C2.36852 10.8472 2.65852 10.3431 2.98326 9.86455L4.41448 10.2333C4.59616 10.2788 4.78906 10.2173 4.90795 10.0719C5.30757 9.58578 5.75658 9.13481 6.24251 8.73069C6.38556 8.61181 6.44793 8.42042 6.40197 8.2396L6.03472 6.79742C6.50986 6.47161 7.01 6.18075 7.52875 5.92832L8.58628 6.96661C8.72071 7.09801 8.91922 7.14052 9.09464 7.0745C9.67658 6.85549 10.2894 6.69129 10.9164 6.58534C11.1011 6.55449 11.2508 6.41899 11.3011 6.23882L11.694 4.83331H12.0835V8.24116C7.77798 8.49361 4.35018 12.0657 4.35018 16.4328C4.35018 20.9635 8.03605 24.6493 12.5669 24.6493C16.7384 24.6493 20.2251 21.4984 20.7084 17.3995H23.838L22.7106 17.7072Z" fill="#AB0908"/>
<path d="M28.6437 10.8541L27.1251 10.4405C27.0313 9.95996 26.9053 9.48637 26.7497 9.02674L27.8072 7.93884C27.9449 7.79665 27.9827 7.58563 27.9019 7.40524C27.55 6.61701 27.1165 5.86336 26.6129 5.1645C26.4968 5.0031 26.2944 4.93255 26.1 4.97893L24.6379 5.35545C24.319 4.98908 23.9742 4.64256 23.6089 4.32103L23.9843 2.8473C24.0331 2.65592 23.9602 2.45396 23.8007 2.33701C23.1057 1.83038 22.355 1.39455 21.5711 1.04065C21.3899 0.960384 21.1767 0.996632 21.0341 1.13645L19.9539 2.19695C19.4986 2.04138 19.0278 1.91515 18.5494 1.82043L18.1386 0.352782C18.0801 0.144566 17.89 0 17.6731 0H16.4333C16.1666 0 15.95 0.215988 15.95 0.483324V13.0498C15.95 13.3171 16.1666 13.5331 16.4333 13.5331H28.5167C28.7834 13.5331 29 13.3171 29 13.0498V11.3203C29 11.1024 28.8541 10.9115 28.6437 10.8541ZM16.9167 12.5665V5.33261C20.6895 5.58247 23.6834 8.7314 23.6834 12.5665H16.9167ZM28.0334 12.5665H24.65C24.65 8.19908 21.2222 4.62723 16.9167 4.3748V0.966952H17.3062L17.6991 2.37246C17.7494 2.55284 17.8998 2.68748 18.0838 2.71898C18.7107 2.82493 19.3236 2.98913 19.9056 3.20813C20.081 3.27437 20.2797 3.2323 20.4139 3.10025L21.4715 2.06262C21.9902 2.31443 22.4903 2.60485 22.9655 2.93111L22.5976 4.37374C22.5516 4.55455 22.6136 4.74594 22.757 4.86483C23.2428 5.26897 23.6918 5.72034 24.0916 6.20604C24.2109 6.35104 24.4038 6.41232 24.5855 6.36744L26.0167 5.99869C26.341 6.47661 26.631 6.98086 26.8824 7.50279L25.8471 8.56804C25.717 8.70182 25.676 8.8986 25.7408 9.07358C25.9591 9.66136 26.1231 10.2776 26.2276 10.9055C26.2584 11.0921 26.3952 11.2429 26.5771 11.2926L28.0333 11.69L28.0334 12.5665Z" fill="#AB0908"/>
<path d="M12.0833 18.3663H13.05V19.333H12.0833V18.3663Z" fill="#AB0908"/>
<path d="M10.15 16.433H11.1167V17.3997H10.15V16.433Z" fill="#AB0908"/>
<path d="M17.8834 10.6332H18.85V11.5998H17.8834V10.6332Z" fill="#AB0908"/>
</svg>
